<?xml version="1.0" encoding="UTF-8"?>
<svg xmlns="http://www.w3.org/2000/svg" version="1.1" viewBox="0 0 1024 1024">
  <!-- Generator: Adobe Illustrator 28.6.0, SVG Export Plug-In . SVG Version: 1.2.0 Build 709)  -->
  <g>
    <g id="Layer_1">
      <g>
        <path d="M943.6,812.8l-78.4-30.2c-3.2-1.2-5.8-3.8-7-7l-30.3-78.9c-1.9-5-5.9-9-10.9-10.9-9.8-3.8-20.8,1.1-24.6,10.9l-30.4,78.9c-1.2,3.2-3.8,5.8-7,7l-78.9,30.3c-5,1.9-9,5.9-10.9,10.9-3.8,9.8,1.1,20.8,10.9,24.6l78.9,30.4c3.2,1.2,5.8,3.8,7,7l30.3,78.9c2.8,7.4,9.9,12.2,17.8,12.2,7.9,0,15-4.8,17.8-12.2l30.4-78.9c1.2-3.2,3.8-5.8,7-7l78.9-30.3c7.2-2.8,12.1-9.6,12.2-17.4,0-8.2-5-15.5-12.7-18.3Z"/>
        <path d="M558.4,839H240c-30.4,0-55-24.6-55-55V240c0-30.4,24.6-55,55-55h544c30.4,0,55,24.6,55,55v368.8c0,13.3,10.7,24,24,24h25c13.3,0,24-10.7,24-24V240c0-70.7-57.3-128-128-128H240c-70.7,0-128,57.3-128,128v544c0,70.7,57.3,128,128,128h318.4c13.3,0,24-10.7,24-24v-25c0-13.3-10.7-24-24-24Z"/>
        <path d="M481.6,362.9c-5.4-13.8-18.7-22.8-33.5-22.8h-22.7c-14.8,0-28.1,9-33.5,22.8l-113.7,288.3c-6.2,15.7,5.4,32.8,22.3,32.8h19.5c9.9,0,18.9-6.1,22.4-15.4l23.1-60.2h142.5l23.1,60.2c3.6,9.3,12.5,15.4,22.4,15.4h19.5c16.9,0,28.5-17.1,22.3-32.8l-113.7-288.3ZM388.3,548.8l48.5-126.7,48.5,126.7h-97Z"/>
        <rect x="649.4" y="340.1" width="67.3" height="343.9" rx="24" ry="24"/>
      </g>
    </g>
  </g>
</svg>