<?xml version="1.0" encoding="UTF-8"?>
<svg xmlns="http://www.w3.org/2000/svg" version="1.1" viewBox="0 0 65 65">
  <defs>
    <style>
      .cls-1 {
        fill: #ff4f65;
      }

      .cls-2, .cls-3 {
        fill: #ff4f64;
      }

      .cls-3, .cls-4 {
        fill-rule: evenodd;
      }

      .cls-4 {
        fill: #f7f5fa;
      }
    </style>
  </defs>
  <!-- Generator: Adobe Illustrator 28.6.0, SVG Export Plug-In . SVG Version: 1.2.0 Build 709)  -->
  <g>
    <g id="Layer_1">
      <g>
        <path class="cls-2" d="M32.7,5.3c10.9,0,20.2,6.9,23.8,16.5,4.7.3,8.5,4.3,8.5,9.1s-2.3,7-5.5,8.4c-.4.1-.7.3-1.1.4h0s0,0,0,0h0c-1.5.5-3,1-4.6,1.4,1.5-3.1,2.4-6.6,2.4-10.3,0-12.9-10.5-23.4-23.4-23.4h-.3c-12.9,0-23.4,10.5-23.4,23.4s.9,7.2,2.4,10.3c-1.6-.4-3.1-.9-4.6-1.4,0,0,0,0,0,0h0c-.4-.1-.7-.3-1.1-.4-3.2-1.4-5.5-4.6-5.5-8.4s3.7-8.8,8.5-9.1c3.6-9.6,12.9-16.5,23.8-16.5h.4Z"/>
        <path class="cls-3" d="M20.9,54.6c-4-2-7.4-4.9-9.9-8.5l1.7-1.2c2.3,3.3,5.5,6,9.2,7.8l-.9,1.9Z"/>
        <path class="cls-2" d="M30.3,59.7c-.7,0-1.4,0-2.1,0-1.9,0-3.3-1.5-3.4-3.4,0-1.8,1.4-3.4,3.3-3.5,1.5,0,7.5,0,9,0,1.9,0,3.3,1.7,3.3,3.5,0,1.9-1.5,3.3-3.4,3.4-.7,0-5.9,0-6.6,0h0Z"/>
        <path class="cls-4" d="M45.7,40c1.8-2.6,2.9-5.8,2.9-9.2,0-8.8-7.2-16-16-16s-16,7.2-16,16,6.9,15.7,15.5,16c0,0,0,0,.1,0h12.6c.2,0,.3-.1.3-.3v-4.8c0-.6.2-1.2.5-1.7ZM44.9,48c.9,0,1.6-.7,1.6-1.6v-4.8c0-.3.1-.7.3-.9,2-2.8,3.1-6.2,3.1-9.9,0-9.5-7.7-17.2-17.2-17.2s-17.2,7.7-17.2,17.2,6.8,16.2,15.5,17.1c.4,0,.8,0,1.3,0h12.7Z"/>
        <circle class="cls-1" cx="39.6" cy="30.8" r="2.1"/>
        <circle class="cls-1" cx="32.7" cy="30.8" r="2.1"/>
        <circle class="cls-1" cx="25.8" cy="30.8" r="2.1"/>
      </g>
    </g>
  </g>
</svg>
