<svg width="200" height="31" viewBox="0 0 200 31" fill="none" xmlns="http://www.w3.org/2000/svg">
<path d="M148.3 29.463L158.133 7.95456H160.376L170.208 29.463H167.811L158.778 9.27579H159.7L150.666 29.463H148.3ZM152.172 23.7172L152.848 21.8736H165.353L166.029 23.7172H152.172Z" fill="#ACA8BF"/>
<path d="M175.61 29.463V7.95456H177.883V29.463H175.61Z" fill="#ACA8BF"/>
<path d="M5.73384 9.12456L2.52304 8.66587L2.5778 9.0218C2.69056 9.75482 3.29069 10.3152 4.02967 10.3776L4.09372 10.383C4.88332 10.4497 5.59386 9.90445 5.73384 9.12456Z" fill="url(#paint0_linear_1278_2229)"/>
<path d="M16.9584 19.0617C20.3986 18.0752 22.8014 14.8839 22.8014 11.3011C22.8014 6.84871 19.1806 3.22643 14.7302 3.22643H0L0.00223968 6.32573C2.98739 5.37282 6.56561 6.68316 8.13674 8.60907C8.13674 8.60907 15.6643 7.95926 16.742 12.8526C16.742 12.8526 9.61053 9.82863 5.64432 15.4269C4.70153 16.7577 4.47219 18.3631 3.89603 20.331C2.82194 23.9996 2.18828 26.7354 0.771344 29.6073H5.92641L7.76115 21.0159H10.6724L15.7621 29.6073H22.3132L16.2323 19.433L16.8859 19.0843L16.9584 19.0617Z" fill="url(#paint1_linear_1278_2229)"/>
<path fill-rule="evenodd" clip-rule="evenodd" d="M32.3415 11.6699C33.9257 11.6699 35.2219 11.8739 36.2301 12.282C37.2623 12.6661 38.0786 13.2421 38.6787 14.0102C39.3028 14.7784 39.7348 15.7267 39.9748 16.8549C40.2149 17.9591 40.335 19.2434 40.335 20.7076V29.6012H35.3661V27.4048H35.2939C34.6938 28.3409 33.8898 29.0132 32.8816 29.4213C31.8975 29.8293 30.8532 30.0334 29.749 30.0334C28.9329 30.0334 28.1407 29.9132 27.3726 29.6732C26.6284 29.4571 25.9683 29.1211 25.3922 28.6651C24.8161 28.209 24.3599 27.6448 24.0239 26.9727C23.6878 26.3006 23.5198 25.5205 23.5198 24.6323C23.5198 23.6242 23.6999 22.7721 24.06 22.0759C24.444 21.3798 24.948 20.8035 25.5721 20.3474C26.2203 19.8914 26.9525 19.5433 27.7686 19.3032C28.5847 19.0392 29.425 18.8473 30.2891 18.7272C31.1773 18.6072 32.0534 18.5352 32.9175 18.5112C33.8056 18.4872 34.6219 18.4751 35.3661 18.4751C35.3661 17.5149 35.018 16.7588 34.3219 16.2067C33.6497 15.6306 32.8455 15.3424 31.9094 15.3424C31.0212 15.3424 30.2051 15.5346 29.461 15.9187C28.7409 16.2788 28.0926 16.7828 27.5164 17.4309L24.636 14.4784C25.6441 13.5423 26.8204 12.8461 28.1646 12.39C29.5089 11.9099 30.9012 11.6699 32.3415 11.6699ZM34.0339 21.9318C33.6258 21.9318 33.1095 21.9557 32.4854 22.0038C31.8853 22.0278 31.2971 22.124 30.721 22.292C30.169 22.46 29.6888 22.7119 29.2808 23.048C28.8967 23.384 28.7048 23.8523 28.7048 24.4524C28.7048 25.1004 28.9809 25.5806 29.5329 25.8926C30.085 26.2046 30.6611 26.3606 31.2612 26.3606C31.7893 26.3606 32.2935 26.2885 32.7736 26.1445C33.2777 26.0005 33.7218 25.7965 34.1058 25.5324C34.4898 25.2684 34.7899 24.9323 35.0059 24.5243C35.2459 24.1162 35.3661 23.6361 35.3661 23.0841V21.9318H34.0339Z" fill="url(#paint2_linear_1278_2229)"/>
<path fill-rule="evenodd" clip-rule="evenodd" d="M70.5554 11.6699C71.8036 11.6699 72.9318 11.886 73.9399 12.3181C74.9721 12.7502 75.8363 13.3743 76.5324 14.1904C77.2526 14.9826 77.8047 15.9427 78.1887 17.0709C78.5728 18.1991 78.765 19.4593 78.765 20.8515V22.5439H66.2347C66.4507 23.5761 66.9187 24.4042 67.6388 25.0284C68.3589 25.6285 69.2471 25.9284 70.3032 25.9284C71.1914 25.9284 71.9357 25.7365 72.5358 25.3524C73.1599 24.9444 73.6999 24.4283 74.156 23.8042L77.9368 26.5766C77.0727 27.6808 75.9805 28.5332 74.6603 29.1333C73.3401 29.7334 71.9717 30.0334 70.5554 30.0334C69.2112 30.0334 67.9389 29.8173 66.7387 29.3852C65.5625 28.9531 64.5303 28.341 63.6422 27.5489C62.778 26.7327 62.0937 25.7605 61.5896 24.6323C61.0855 23.5041 60.8336 22.2438 60.8336 20.8515C60.8336 19.4593 61.0855 18.1991 61.5896 17.0709C62.0937 15.9427 62.778 14.9826 63.6422 14.1904C64.5303 13.3743 65.5625 12.7502 66.7387 12.3181C67.9389 11.886 69.2112 11.6699 70.5554 11.6699ZM70.0513 15.5585C69.4512 15.5585 68.9231 15.6547 68.467 15.8468C68.0109 16.0388 67.6149 16.2907 67.2789 16.6027C66.9668 16.8908 66.7147 17.2389 66.5227 17.6469C66.3547 18.031 66.2587 18.4391 66.2347 18.8711H73.3639C73.3879 17.959 73.0879 17.1789 72.4639 16.5308C71.8397 15.8827 71.0355 15.5585 70.0513 15.5585Z" fill="url(#paint3_linear_1278_2229)"/>
<path d="M50.9704 23.9841H51.0424L55.147 12.102H60.5841L53.6709 29.6012H47.9458L40.7085 12.102H46.5414L50.9704 23.9841Z" fill="url(#paint4_linear_1278_2229)"/>
<path d="M91.7868 11.6699C93.155 11.6699 94.2592 11.886 95.0994 12.3181C95.9395 12.7262 96.5876 13.3022 97.0437 14.0463C97.5238 14.7905 97.8479 15.6667 98.0159 16.6749C98.184 17.6831 98.2678 18.7752 98.2678 19.9514V29.6012H92.8668V21.0317C92.8668 20.5277 92.8429 20.0115 92.7949 19.4834C92.7709 18.9313 92.6628 18.4271 92.4708 17.971C92.3027 17.515 92.0267 17.1429 91.6426 16.8549C91.2826 16.5668 90.7546 16.4228 90.0585 16.4228C89.3624 16.4228 88.7982 16.5548 88.3661 16.8188C87.934 17.0588 87.598 17.3951 87.358 17.8271C87.142 18.2352 86.9979 18.7032 86.9259 19.2313C86.8539 19.7594 86.8178 20.3115 86.8178 20.8876V29.6012H81.4168V12.102H86.6018V14.4784H86.6737C86.8418 14.1424 87.0818 13.8061 87.3938 13.4701C87.7059 13.1341 88.0779 12.834 88.51 12.57C88.9421 12.3059 89.4342 12.0898 89.9863 11.9218C90.5384 11.7538 91.1386 11.6699 91.7868 11.6699Z" fill="url(#paint5_linear_1278_2229)"/>
<path fill-rule="evenodd" clip-rule="evenodd" d="M108.242 7.98476C110.331 7.98476 112.203 8.37211 113.82 9.19102C115.452 10.017 116.72 11.2447 117.607 12.8512C118.502 14.455 118.914 16.3921 118.914 18.6035C118.914 20.9051 118.483 22.9213 117.555 24.595C116.648 26.263 115.328 27.5294 113.621 28.3727C111.928 29.2088 109.931 29.6008 107.673 29.6008H101.141V7.98476H108.242ZM105.87 25.2236H107.348C109.794 25.2236 111.41 24.6246 112.416 23.6324C113.443 22.6196 114.05 21.0394 114.05 18.6846C114.05 17.0896 113.78 15.8814 113.315 14.9956L113.312 14.989L113.308 14.9823C112.862 14.1044 112.217 13.4758 111.348 13.0629L111.338 13.0581L111.328 13.0527C110.443 12.6103 109.312 12.3619 107.89 12.3619H105.87V25.2236Z" fill="url(#paint6_linear_1278_2229)"/>
<path fill-rule="evenodd" clip-rule="evenodd" d="M128.22 7.98476C129.889 7.98476 131.346 8.14313 132.563 8.48761C133.829 8.84091 134.888 9.45517 135.618 10.4007C136.378 11.3606 136.701 12.5727 136.701 13.9216C136.701 14.8247 136.528 15.6739 136.156 16.4446C135.844 17.1089 135.39 17.6741 134.815 18.1391C135.565 18.5702 136.172 19.1628 136.619 19.9078C137.137 20.7719 137.35 21.8166 137.35 22.9605C137.35 24.3141 137.036 25.5425 136.352 26.5907L136.346 26.6004C135.666 27.6201 134.704 28.3765 133.516 28.8857L133.507 28.8896C132.34 29.3775 130.991 29.6008 129.492 29.6008H121.553V7.98476H128.22ZM126.282 25.2507H129.032C130.667 25.2507 131.46 24.9183 131.793 24.5851C132.214 24.1646 132.459 23.5978 132.459 22.7711C132.459 22.2613 132.347 21.8788 132.165 21.5801L132.157 21.567L132.15 21.5537C132.027 21.3384 131.776 21.0957 131.245 20.8915L131.229 20.8849L131.212 20.8782C130.727 20.6738 129.962 20.5349 128.843 20.5349H126.282V25.2507ZM126.282 16.2118H128.707C130.323 16.2118 131.085 15.9412 131.366 15.707C131.664 15.4402 131.89 15.0007 131.89 14.1921C131.89 13.4339 131.648 13.1029 131.314 12.9043L131.3 12.896L131.287 12.8873C130.831 12.5983 129.914 12.3619 128.328 12.3619H126.282V16.2118Z" fill="url(#paint7_linear_1278_2229)"/>
<path d="M190.821 7.95717C190.93 7.60156 191.434 7.60156 191.543 7.95717L192.912 12.3953C192.944 12.4997 193.02 12.5851 193.12 12.6295L196.996 14.3507C197.296 14.4838 197.296 14.9089 196.996 15.0419L193.12 16.7632C193.02 16.8076 192.944 16.893 192.912 16.9974L191.543 21.4355C191.434 21.7911 190.93 21.7911 190.821 21.4355L189.452 16.9974C189.42 16.893 189.344 16.8076 189.244 16.7632L185.368 15.0419C185.068 14.9089 185.068 14.4838 185.368 14.3507L189.244 12.6295C189.344 12.5851 189.42 12.4997 189.452 12.3953L190.821 7.95717Z" fill="url(#paint8_linear_1278_2229)"/>
<path d="M196.198 1.0046C196.278 0.75335 196.634 0.753351 196.713 1.0046L197.487 3.44375C197.511 3.51836 197.565 3.57904 197.637 3.61007L199.837 4.55965C200.054 4.65349 200.054 4.96174 199.837 5.05559L197.637 6.00517C197.565 6.03619 197.511 6.09687 197.487 6.17148L196.713 8.61064C196.634 8.86189 196.278 8.86189 196.198 8.61064L195.425 6.17148C195.401 6.09687 195.346 6.03619 195.274 6.00517L193.075 5.05559C192.857 4.96174 192.857 4.65349 193.075 4.55965L195.274 3.61007C195.346 3.57904 195.401 3.51836 195.425 3.44375L196.198 1.0046Z" fill="url(#paint9_linear_1278_2229)"/>
<defs>
<linearGradient id="paint0_linear_1278_2229" x1="0" y1="0.816162" x2="7.98875" y2="57.226" gradientUnits="userSpaceOnUse">
<stop stop-color="#388EE9"/>
<stop offset="0.85404" stop-color="#7B51FF"/>
</linearGradient>
<linearGradient id="paint1_linear_1278_2229" x1="0" y1="0.816162" x2="7.98875" y2="57.226" gradientUnits="userSpaceOnUse">
<stop stop-color="#388EE9"/>
<stop offset="0.85404" stop-color="#7B51FF"/>
</linearGradient>
<linearGradient id="paint2_linear_1278_2229" x1="0" y1="0.816162" x2="7.98875" y2="57.226" gradientUnits="userSpaceOnUse">
<stop stop-color="#388EE9"/>
<stop offset="0.85404" stop-color="#7B51FF"/>
</linearGradient>
<linearGradient id="paint3_linear_1278_2229" x1="0" y1="0.816162" x2="7.98875" y2="57.226" gradientUnits="userSpaceOnUse">
<stop stop-color="#388EE9"/>
<stop offset="0.85404" stop-color="#7B51FF"/>
</linearGradient>
<linearGradient id="paint4_linear_1278_2229" x1="0" y1="0.816162" x2="7.98875" y2="57.226" gradientUnits="userSpaceOnUse">
<stop stop-color="#388EE9"/>
<stop offset="0.85404" stop-color="#7B51FF"/>
</linearGradient>
<linearGradient id="paint5_linear_1278_2229" x1="0" y1="0.816162" x2="7.98875" y2="57.226" gradientUnits="userSpaceOnUse">
<stop stop-color="#388EE9"/>
<stop offset="0.85404" stop-color="#7B51FF"/>
</linearGradient>
<linearGradient id="paint6_linear_1278_2229" x1="0" y1="0.816162" x2="7.98875" y2="57.226" gradientUnits="userSpaceOnUse">
<stop stop-color="#388EE9"/>
<stop offset="0.85404" stop-color="#7B51FF"/>
</linearGradient>
<linearGradient id="paint7_linear_1278_2229" x1="0" y1="0.816162" x2="7.98875" y2="57.226" gradientUnits="userSpaceOnUse">
<stop stop-color="#388EE9"/>
<stop offset="0.85404" stop-color="#7B51FF"/>
</linearGradient>
<linearGradient id="paint8_linear_1278_2229" x1="0" y1="0.816162" x2="7.98875" y2="57.226" gradientUnits="userSpaceOnUse">
<stop stop-color="#388EE9"/>
<stop offset="0.85404" stop-color="#7B51FF"/>
</linearGradient>
<linearGradient id="paint9_linear_1278_2229" x1="0" y1="0.816162" x2="7.98875" y2="57.226" gradientUnits="userSpaceOnUse">
<stop stop-color="#388EE9"/>
<stop offset="0.85404" stop-color="#7B51FF"/>
</linearGradient>
</defs>
</svg>
